<svg width="22" height="22" viewBox="0 0 22 22" fill="none" xmlns="http://www.w3.org/2000/svg">
<path d="M10.2129 1.83331H11.7877C13.6339 1.83331 14.6239 2.08815 15.5195 2.56756C16.4062 3.03628 17.1312 3.76102 17.6003 4.64748C18.0788 5.54398 18.3346 6.53398 18.3346 8.38015V13.6216C18.3346 15.4678 18.0788 16.4578 17.6003 17.3534C17.1312 18.2399 16.4062 18.9646 15.5195 19.4333C14.6239 19.9118 13.6339 20.1676 11.7877 20.1676H10.212C8.36583 20.1676 7.37583 19.9118 6.47933 19.4333C5.59334 18.9643 4.86895 18.2396 4.40033 17.3534C3.92183 16.4578 3.66699 15.4678 3.66699 13.6216V8.37831C3.66699 6.53215 3.92183 5.54215 4.40124 4.64565C4.87041 3.76 5.5951 3.03595 6.48116 2.56756C7.37674 2.08815 8.36674 1.83331 10.2129 1.83331ZM10.0837 5.49998V10.0833H11.917V5.49998H10.0837Z" fill="white"/>
</svg>
